<svg width="21" height="19" viewBox="0 0 21 19" fill="none" xmlns="http://www.w3.org/2000/svg">
<path d="M4.27143 13.437C3.27548 12.8612 2.43201 12.0551 1.81166 11.0863C1.19131 10.1174 0.812146 9.01407 0.705928 7.86856C0.599709 6.72305 0.769527 5.56877 1.20116 4.50239C1.63279 3.43601 2.31367 2.48858 3.18677 1.73946C4.05986 0.990341 5.09975 0.461343 6.21934 0.196772C7.33893 -0.0677985 8.50561 -0.060238 9.62168 0.21882C10.7377 0.497879 11.7707 1.04031 12.634 1.80068C13.4973 2.56105 14.1659 3.51722 14.5836 4.58911C15.8394 4.34087 17.1425 4.58877 18.2194 5.28076C19.2964 5.97275 20.0633 7.05503 20.3594 8.3004C20.6554 9.54578 20.4575 10.8574 19.8071 11.96C19.1568 13.0626 18.1046 13.8703 16.8714 14.2137V12.2967C17.2874 12.0993 17.655 11.8132 17.9485 11.4584C18.2419 11.1036 18.454 10.6888 18.5698 10.2431C18.6856 9.79753 18.7023 9.33195 18.6187 8.87918C18.5352 8.42641 18.3534 7.99746 18.0862 7.62253C17.8189 7.24761 17.4728 6.93582 17.072 6.70913C16.6713 6.48243 16.2257 6.34634 15.7667 6.31043C15.3077 6.27453 14.8464 6.33968 14.4153 6.5013C13.9842 6.66293 13.5937 6.9171 13.2714 7.24591V7.20001C13.2715 6.29925 13.0461 5.41279 12.616 4.62136C12.1859 3.82992 11.5647 3.15866 10.8088 2.66868C10.053 2.17871 9.18658 1.88559 8.28851 1.81602C7.39044 1.74645 6.48923 1.90263 5.66695 2.27036C4.84467 2.63808 4.12744 3.20566 3.58056 3.92141C3.03369 4.63716 2.67455 5.47834 2.53584 6.36835C2.39714 7.25837 2.48327 8.16895 2.78641 9.01717C3.08954 9.86539 3.60005 10.6243 4.27143 11.2248V13.437ZM6.07143 12.6H7.87144V16.2H6.07143V12.6ZM13.2714 12.6H15.0714V16.2H13.2714V12.6ZM9.67144 15.3H11.4714V18.9H9.67144V15.3Z" fill="#335CFF"/>
</svg>

