<svg width="131" height="40" viewBox="0 0 131 40" fill="none" xmlns="http://www.w3.org/2000/svg">
<g opacity="0.75">
<path d="M0 20C0 8.95431 8.95431 0 20 0C31.0457 0 40 8.95431 40 20C40 31.0457 31.0457 40 20 40C8.95431 40 0 31.0457 0 20Z" fill="#222530"/>
<path opacity="0.48" d="M15.4244 25.3191C15.0551 25.3191 14.7099 25.5026 14.5034 25.8087L12.1693 29.2673C11.6713 30.0052 12.2 30.9999 13.0903 30.9999H24.5112C24.8805 30.9999 25.2256 30.8165 25.4322 30.5104L33.8306 18.0659C34.3287 17.328 33.7999 16.3333 32.9096 16.3333H25.1825C24.8133 16.3333 24.4681 16.5167 24.2615 16.8228L19.3535 24.0953C18.8371 24.8605 17.9742 25.3191 17.051 25.3191H15.4244Z" fill="url(#paint0_linear_10_272)"/>
<path d="M13.6666 10.0303C14.0744 9.38864 14.7818 9 15.5421 9H24.9773C25.8538 9 26.3852 9.96737 25.9151 10.7071L18.3334 22.6364C17.9257 23.278 17.2182 23.6667 16.4579 23.6667H7.0227C6.14623 23.6667 5.61483 22.6993 6.08495 21.9596L13.6666 10.0303Z" fill="url(#paint1_linear_10_272)"/>
<path d="M51.3807 24V15.2727H54.5767C55.196 15.2727 55.7088 15.375 56.1151 15.5795C56.5213 15.7812 56.8253 16.0554 57.027 16.402C57.2287 16.7457 57.3295 17.1335 57.3295 17.5653C57.3295 17.929 57.2628 18.2358 57.1293 18.4858C56.9957 18.733 56.8168 18.9318 56.5923 19.0824C56.3707 19.2301 56.1264 19.3381 55.8594 19.4062V19.4915C56.1491 19.5057 56.4318 19.5994 56.7074 19.7727C56.9858 19.9432 57.2159 20.1861 57.3977 20.5014C57.5795 20.8168 57.6705 21.2003 57.6705 21.652C57.6705 22.098 57.5653 22.4986 57.3551 22.8537C57.1477 23.206 56.8267 23.4858 56.392 23.6932C55.9574 23.8977 55.402 24 54.7259 24H51.3807ZM52.6974 22.8707H54.598C55.2287 22.8707 55.6804 22.7486 55.9531 22.5043C56.2259 22.2599 56.3622 21.9545 56.3622 21.5881C56.3622 21.3125 56.2926 21.0597 56.1534 20.8295C56.0142 20.5994 55.8153 20.4162 55.5568 20.2798C55.3011 20.1435 54.9972 20.0753 54.6449 20.0753H52.6974V22.8707ZM52.6974 19.0483H54.4616C54.7571 19.0483 55.0227 18.9915 55.2585 18.8778C55.4972 18.7642 55.6861 18.6051 55.8253 18.4006C55.9673 18.1932 56.0384 17.9489 56.0384 17.6676C56.0384 17.3068 55.9119 17.0043 55.6591 16.7599C55.4063 16.5156 55.0185 16.3935 54.4957 16.3935H52.6974V19.0483ZM59.2322 24V15.2727H62.343C63.0192 15.2727 63.5803 15.3892 64.0263 15.6222C64.4751 15.8551 64.8104 16.1776 65.032 16.5895C65.2536 16.9986 65.3643 17.4716 65.3643 18.0085C65.3643 18.5426 65.2521 19.0128 65.0277 19.419C64.8061 19.8224 64.4709 20.1364 64.022 20.3608C63.576 20.5852 63.0149 20.6974 62.3388 20.6974H59.9822V19.5639H62.2195C62.6456 19.5639 62.9922 19.5028 63.2592 19.3807C63.5291 19.2585 63.7266 19.081 63.8516 18.848C63.9766 18.6151 64.0391 18.3352 64.0391 18.0085C64.0391 17.679 63.9751 17.3935 63.8473 17.152C63.7223 16.9105 63.5249 16.7259 63.255 16.598C62.9879 16.4673 62.6371 16.402 62.2024 16.402H60.549V24H59.2322ZM63.5405 20.0625L65.6967 24H64.1967L62.0831 20.0625H63.5405ZM67.7038 24H66.3061L69.4467 15.2727H70.968L74.1087 24H72.7109L70.2436 16.858H70.1754L67.7038 24ZM67.9382 20.5824H72.4723V21.6903H67.9382V20.5824ZM82.413 15.2727V24H81.2028L76.7667 17.5994H76.6857V24H75.369V15.2727H76.5877L81.0281 21.6818H81.109V15.2727H82.413ZM87.1591 24H84.3338V15.2727H87.2486C88.1037 15.2727 88.8381 15.4474 89.4517 15.7969C90.0653 16.1435 90.5355 16.642 90.8622 17.2926C91.1918 17.9403 91.3565 18.7173 91.3565 19.6236C91.3565 20.5327 91.1903 21.3139 90.858 21.9673C90.5284 22.6207 90.0511 23.1236 89.4261 23.4759C88.8011 23.8253 88.0455 24 87.1591 24ZM85.6506 22.8494H87.0866C87.7514 22.8494 88.304 22.7244 88.7443 22.4744C89.1847 22.2216 89.5142 21.8565 89.733 21.3793C89.9517 20.8991 90.0611 20.3139 90.0611 19.6236C90.0611 18.9389 89.9517 18.358 89.733 17.8807C89.517 17.4034 89.1946 17.0412 88.7656 16.794C88.3366 16.5469 87.804 16.4233 87.1676 16.4233H85.6506V22.8494ZM103.214 15.2727V24H102.004L97.5675 17.5994H97.4865V24H96.1697V15.2727H97.3885L101.829 21.6818H101.91V15.2727H103.214ZM105.872 24H104.474L107.615 15.2727H109.136L112.277 24H110.879L108.412 16.858H108.343L105.872 24ZM106.106 20.5824H110.64V21.6903H106.106V20.5824ZM113.537 15.2727H115.135L117.913 22.0568H118.016L120.794 15.2727H122.392V24H121.139V17.6847H121.058L118.484 23.9872H117.445L114.871 17.6804H114.79V24H113.537V15.2727ZM124.306 24V15.2727H129.778V16.4062H125.623V19.0653H129.493V20.1946H125.623V22.8665H129.829V24H124.306Z" fill="white"/>
</g>
<defs>
<linearGradient id="paint0_linear_10_272" x1="23" y1="16.3333" x2="23" y2="38.5731" gradientUnits="userSpaceOnUse">
<stop offset="0.313079" stop-color="white"/>
<stop offset="1" stop-color="white" stop-opacity="0"/>
</linearGradient>
<linearGradient id="paint1_linear_10_272" x1="16.0001" y1="9" x2="16.0001" y2="28.3944" gradientUnits="userSpaceOnUse">
<stop offset="0.38239" stop-color="white"/>
<stop offset="1" stop-color="white" stop-opacity="0"/>
</linearGradient>
</defs>
</svg>
